<mxfile host="Electron" modified="2023-11-30T18:18:09.129Z" agent="Mozilla/5.0 (Windows NT 10.0; Win64; x64) AppleWebKit/537.36 (KHTML, like Gecko) draw.io/22.1.2 Chrome/114.0.5735.289 Electron/25.9.4 Safari/537.36" etag="TNpRBNuJILDF7dw5rUPc" version="22.1.2" type="device">
  <diagram id="C5RBs43oDa-KdzZeNtuy" name="Page-1">
    <mxGraphModel dx="1036" dy="606" grid="1" gridSize="10" guides="1" tooltips="1" connect="1" arrows="1" fold="1" page="1" pageScale="1" pageWidth="827" pageHeight="1169" math="0" shadow="0">
      <root>
        <mxCell id="WIyWlLk6GJQsqaUBKTNV-0" />
        <mxCell id="WIyWlLk6GJQsqaUBKTNV-1" parent="WIyWlLk6GJQsqaUBKTNV-0" />
        <mxCell id="J-WKQ8PQNcJPCvsLhypE-0" value="" style="endArrow=diamondThin;endFill=0;endSize=33;html=1;rounded=0;" parent="WIyWlLk6GJQsqaUBKTNV-1" edge="1" target="J-WKQ8PQNcJPCvsLhypE-8" source="J-WKQ8PQNcJPCvsLhypE-12">
          <mxGeometry width="160" relative="1" as="geometry">
            <mxPoint x="520" y="267" as="sourcePoint" />
            <mxPoint x="280" y="267" as="targetPoint" />
          </mxGeometry>
        </mxCell>
        <mxCell id="J-WKQ8PQNcJPCvsLhypE-1" value="0..*" style="resizable=0;align=right;verticalAlign=bottom;labelBackgroundColor=none;fontSize=16;" parent="WIyWlLk6GJQsqaUBKTNV-1" connectable="0" vertex="1">
          <mxGeometry x="414" y="260" as="geometry" />
        </mxCell>
        <mxCell id="J-WKQ8PQNcJPCvsLhypE-2" value="1" style="resizable=0;align=left;verticalAlign=bottom;labelBackgroundColor=none;fontSize=16;" parent="WIyWlLk6GJQsqaUBKTNV-1" connectable="0" vertex="1">
          <mxGeometry x="300" y="250" as="geometry">
            <mxPoint x="3" y="9" as="offset" />
          </mxGeometry>
        </mxCell>
        <mxCell id="J-WKQ8PQNcJPCvsLhypE-8" value="Author" style="swimlane;fontStyle=1;align=center;verticalAlign=top;childLayout=stackLayout;horizontal=1;startSize=26;horizontalStack=0;resizeParent=1;resizeParentMax=0;resizeLast=0;collapsible=1;marginBottom=0;whiteSpace=wrap;html=1;" parent="WIyWlLk6GJQsqaUBKTNV-1" vertex="1">
          <mxGeometry x="80" y="200" width="200" height="140" as="geometry" />
        </mxCell>
        <mxCell id="J-WKQ8PQNcJPCvsLhypE-9" value="- name: string&lt;br&gt;- books: array of Book" style="text;strokeColor=none;fillColor=none;align=left;verticalAlign=top;spacingLeft=4;spacingRight=4;overflow=hidden;rotatable=0;points=[[0,0.5],[1,0.5]];portConstraint=eastwest;whiteSpace=wrap;html=1;" parent="J-WKQ8PQNcJPCvsLhypE-8" vertex="1">
          <mxGeometry y="26" width="200" height="44" as="geometry" />
        </mxCell>
        <mxCell id="J-WKQ8PQNcJPCvsLhypE-10" value="" style="line;strokeWidth=1;fillColor=none;align=left;verticalAlign=middle;spacingTop=-1;spacingLeft=3;spacingRight=3;rotatable=0;labelPosition=right;points=[];portConstraint=eastwest;strokeColor=inherit;" parent="J-WKQ8PQNcJPCvsLhypE-8" vertex="1">
          <mxGeometry y="70" width="200" height="8" as="geometry" />
        </mxCell>
        <mxCell id="J-WKQ8PQNcJPCvsLhypE-11" value="+ construct (string name)&lt;br&gt;+ addBook (Book book)" style="text;strokeColor=none;fillColor=none;align=left;verticalAlign=top;spacingLeft=4;spacingRight=4;overflow=hidden;rotatable=0;points=[[0,0.5],[1,0.5]];portConstraint=eastwest;whiteSpace=wrap;html=1;" parent="J-WKQ8PQNcJPCvsLhypE-8" vertex="1">
          <mxGeometry y="78" width="200" height="62" as="geometry" />
        </mxCell>
        <mxCell id="J-WKQ8PQNcJPCvsLhypE-12" value="Book" style="swimlane;fontStyle=1;align=center;verticalAlign=top;childLayout=stackLayout;horizontal=1;startSize=26;horizontalStack=0;resizeParent=1;resizeParentMax=0;resizeLast=0;collapsible=1;marginBottom=0;whiteSpace=wrap;html=1;" parent="WIyWlLk6GJQsqaUBKTNV-1" vertex="1">
          <mxGeometry x="424" y="200" width="210" height="140" as="geometry" />
        </mxCell>
        <mxCell id="J-WKQ8PQNcJPCvsLhypE-13" value="- title: string&lt;br&gt;- isbn: string&lt;br&gt;- author: Author" style="text;strokeColor=none;fillColor=none;align=left;verticalAlign=top;spacingLeft=4;spacingRight=4;overflow=hidden;rotatable=0;points=[[0,0.5],[1,0.5]];portConstraint=eastwest;whiteSpace=wrap;html=1;" parent="J-WKQ8PQNcJPCvsLhypE-12" vertex="1">
          <mxGeometry y="26" width="210" height="54" as="geometry" />
        </mxCell>
        <mxCell id="J-WKQ8PQNcJPCvsLhypE-14" value="" style="line;strokeWidth=1;fillColor=none;align=left;verticalAlign=middle;spacingTop=-1;spacingLeft=3;spacingRight=3;rotatable=0;labelPosition=right;points=[];portConstraint=eastwest;strokeColor=inherit;" parent="J-WKQ8PQNcJPCvsLhypE-12" vertex="1">
          <mxGeometry y="80" width="210" height="8" as="geometry" />
        </mxCell>
        <mxCell id="J-WKQ8PQNcJPCvsLhypE-15" value="+ construct (string title, string isbn)&lt;br&gt;+ setAuthor (Author author)" style="text;strokeColor=none;fillColor=none;align=left;verticalAlign=top;spacingLeft=4;spacingRight=4;overflow=hidden;rotatable=0;points=[[0,0.5],[1,0.5]];portConstraint=eastwest;whiteSpace=wrap;html=1;" parent="J-WKQ8PQNcJPCvsLhypE-12" vertex="1">
          <mxGeometry y="88" width="210" height="52" as="geometry" />
        </mxCell>
      </root>
    </mxGraphModel>
  </diagram>
</mxfile>
